<svg xmlns="http://www.w3.org/2000/svg" xmlns:xlink="http://www.w3.org/1999/xlink" xmlns:inkscape="http://www.inkscape.org/namespaces/inkscape" version="1.1" width="76" height="45" viewBox="0 0 76 45">
<defs>
<path id="font_1_1" d="M.6279907 .5686035C.6769867 .64660647 .71899417 .6496124 .7559967 .6516113 .7679901 .65260317 .7689972 .6696167 .7689972 .6706085 .7689972 .6786041 .7639923 .6826172 .7559967 .6826172 .7299957 .6826172 .70098879 .6796112 .673996 .6796112 .6409912 .6796112 .6069946 .6826172 .57499697 .6826172 .56900027 .6826172 .55599978 .6826172 .55599978 .66360476 .55599978 .65260317 .5649872 .6516113 .57199099 .6516113 .598999 .6496124 .6179962 .63960269 .6179962 .61860659 .6179962 .6036072 .6029968 .581604 .6029968 .5805969L.29599 .092544559 .22799683 .62161257C.22799683 .63861086 .25099183 .6516113 .29699708 .6516113 .31098939 .6516113 .32199098 .6516113 .32199098 .6716156 .32199098 .680603 .31399537 .6826172 .30799867 .6826172 .2679901 .6826172 .22499085 .6796112 .18399048 .6796112 .1659851 .6796112 .14698792 .680603 .1289978 .680603 .11099243 .680603 .09199524 .6826172 .07499695 .6826172 .067993167 .6826172 .055999757 .6826172 .055999757 .66360476 .055999757 .6516113 .06498718 .6516113 .08099365 .6516113 .13699341 .6516113 .13798523 .64260867 .14099121 .6175995L.21998596 .0005340576C.22299195-.019470215 .22698975-.022460938 .23999024-.022460938 .2559967-.022460938 .2599945-.017471314 .2679901-.004470825L.6279907 .5686035Z"/>
<path id="font_1_2" d="M.9169922 .5666046C.94200137 .61061099 .96598818 .64660647 1.0289917 .6516113 1.0379944 .65260317 1.0479889 .65260317 1.0479889 .6716156 1.0479889 .6756134 1.0439911 .6826172 1.0359955 .6826172 1.0119934 .6826172 .98399356 .6796112 .95899966 .6796112 .9249878 .6796112 .8880005 .6826172 .8549957 .6826172 .848999 .6826172 .83599856 .6826172 .83599856 .66360476 .83599856 .65260317 .8450012 .6516113 .8509979 .6516113 .875 .65060427 .9099884 .64260867 .9099884 .61260989 .9099884 .6016083 .9049988 .5935974 .8969879 .5796051L.6269989 .108551029 .58999636 .604599C.58898928 .6246033 .58699038 .65060427 .6599884 .6516113 .6769867 .6516113 .68699648 .6516113 .68699648 .6716156 .68699648 .6816101 .6759949 .6826172 .6719971 .6826172 .6319885 .6826172 .58999636 .6796112 .5499878 .6796112 .5269928 .6796112 .46798707 .6826172 .44499208 .6826172 .43899537 .6826172 .42599488 .6826172 .42599488 .6626129 .42599488 .6516113 .43598939 .6516113 .44999696 .6516113 .49398805 .6516113 .5009918 .6456146 .5029907 .6266022L.5089874 .54959109 .2559967 .108551029 .21798706 .6156006C.21798706 .62760928 .21798706 .65060427 .2939911 .6516113 .3039856 .6516113 .31498719 .6516113 .31498719 .6716156 .31498719 .6826172 .30299378 .6826172 .30099488 .6826172 .26098634 .6826172 .21899414 .6796112 .17799378 .6796112 .14299011 .6796112 .10699463 .6826172 .07299805 .6826172 .067993167 .6826172 .054992677 .6826172 .054992677 .66360476 .054992677 .6516113 .06399536 .6516113 .07998657 .6516113 .12998963 .6516113 .1309967 .64260867 .1329956 .61460879L.17799378 .0035247803C.1789856-.014465332 .17999268-.022460938 .19400025-.022460938 .20599365-.022460938 .20899964-.016464234 .21798706-.0014648438L.5119934 .5085907 .548996 .0035247803C.5509949-.017471314 .5529938-.022460938 .5649872-.022460938 .5779877-.022460938 .58399966-.012466431 .58898928-.0034637452L.9169922 .5666046Z"/>
<path id="font_2_1" d="M.25898744 .3359375C.2999878 .3359375 .3999939 .33392335 .4079895 .22195435 .40899659 .20996094 .4099884 .19696045 .42599488 .19696045 .44299317 .19696045 .44299317 .21095276 .44299317 .22895813V.49975587C.44299317 .5157471 .44299317 .531723 .42599488 .531723 .41299439 .531723 .40899659 .5217285 .4079895 .5107422 .4019928 .39489747 .33198548 .3749237 .25898744 .37193299V.58265689C.25898744 .64956668 .27799989 .64956668 .3019867 .64956668H.34899903C.47698976 .64956668 .5419922 .58065798 .5479889 .51174929 .548996 .50375369 .5499878 .48876954 .56599429 .48876954 .58299258 .48876954 .58299258 .50476077 .58299258 .5217285V.65156558C.58299258 .68255618 .58099368 .6845703 .5499878 .6845703H.04798889C.02999878 .6845703 .01399231 .6845703 .01399231 .66656497 .01399231 .64956668 .032989503 .64956668 .040985109 .64956668 .09799194 .64956668 .101989749 .64157107 .101989749 .5926361V.09197998C.101989749 .04498291 .09899902 .034988405 .04598999 .034988405 .0309906 .034988405 .01399231 .034988405 .01399231 .017990113 .01399231 0 .02999878 0 .04798889 0H.33699037C.35499574 0 .36999513 0 .36999513 .017990113 .36999513 .034988405 .35299684 .034988405 .33999635 .034988405 .2630005 .034988405 .25898744 .041992189 .25898744 .09498596V.3359375M.5479889 .64956668V.6026306C.5339966 .6175995 .5169983 .6355896 .49398805 .64956668H.5479889M.4079895 .3169403C.3929901 .3359375 .36698915 .3509369 .35499574 .3559265 .37399293 .3649292 .3939972 .3809204 .4079895 .39788819V.3169403M.13699341 .594635C.13699341 .6066284 .13699341 .6315918 .1289978 .64956668H.23498535C.22399903 .6266022 .22399903 .5936432 .22399903 .58465579V.09298706C.22399903 .07798767 .22399903 .053985597 .23399353 .034988405H.1289978C.13699341 .052993776 .13699341 .07798767 .13699341 .08998108V.594635Z"/>
<path id="font_3_4" d="M.12199402 .06324768C.117996219 .050247194 .11199951 .025222779 .11199951 .022232056 .11199951 .00022888184 .12998963-.009765625 .1459961-.009765625 .1639862-.009765625 .17999268 .0032196046 .18499756 .01222229 .18998719 .021224976 .19799805 .053237916 .20298767 .07424927 .20799256 .09326172 .21899414 .13928223 .22499085 .16429138 .23098755 .18629456 .23699951 .20831299 .24198914 .23132324 .25299073 .27233888 .25498963 .28033448 .28399659 .32136537 .31199647 .3613739 .35899354 .4133911 .43399049 .4133911 .49198915 .4133911 .49299623 .36238099 .49299623 .34336854 .49299623 .28334046 .44999696 .17228699 .43399049 .13027954 .4229889 .102264408 .4189911 .09326172 .4189911 .07624817 .4189911 .023223877 .46299745-.009765625 .5139923-.009765625 .6139984-.009765625 .6579895 .12828064 .6579895 .14328003 .6579895 .15628052 .644989 .15628052 .6419983 .15628052 .6279907 .15628052 .6269989 .15028382 .6230011 .13928223 .59999087 .059249879 .5569916 .018234253 .5169983 .018234253 .49598695 .018234253 .49198915 .032226564 .49198915 .053237916 .49198915 .07624817 .49699403 .089263919 .5149994 .13427735 .5269928 .1652832 .56799319 .2713318 .56799319 .32736207 .56799319 .4243927 .4909973 .44140626 .43798829 .44140626 .35499574 .44140626 .29899598 .39038087 .2689972 .3503723 .2619934 .41940309 .20298767 .44140626 .1619873 .44140626 .11898804 .44140626 .09599304 .4104004 .08299255 .38739015 .06098938 .3503723 .04699707 .29335023 .04699707 .28834535 .04699707 .27534486 .06098938 .27534486 .06399536 .27534486 .07798767 .27534486 .07899475 .27833558 .085998538 .3053589 .100997928 .36437989 .11999512 .4133911 .15899658 .4133911 .18499756 .4133911 .19198609 .39138795 .19198609 .36437989 .19198609 .34536744 .18299866 .3083496 .17599488 .28134156 .16899109 .2543335 .15899658 .21331787 .1539917 .19129944L.12199402 .06324768Z"/>
<path id="font_3_3" d="M.43399049 .08125305C.42900086 .06124878 .41999818 .027236939 .41999818 .022232056 .41999818 .00022888184 .43798829-.009765625 .45399476-.009765625 .47200013-.009765625 .48799134 .0032196046 .49299623 .01222229 .49798585 .021224976 .5059967 .053237916 .5109863 .07424927 .5159912 .09326172 .5269928 .13928223 .5329895 .16429138 .5389862 .18629456 .54499819 .20831299 .5499878 .23132324 .5609894 .27433778 .5609894 .27633668 .58099368 .3073578 .61299136 .35636903 .6629944 .4133911 .7409973 .4133911 .7969971 .4133911 .7999878 .36738587 .7999878 .34336854 .7999878 .28334046 .7569885 .17228699 .7409973 .13027954 .7299957 .102264408 .7259979 .09326172 .7259979 .07624817 .7259979 .023223877 .769989-.009765625 .82099917-.009765625 .92099-.009765625 .96499636 .12828064 .96499636 .14328003 .96499636 .15628052 .95199587 .15628052 .94898989 .15628052 .93499758 .15628052 .9339905 .15028382 .9299927 .13928223 .9069977 .059249879 .8639984 .018234253 .82398989 .018234253 .8029938 .018234253 .798996 .032226564 .798996 .053237916 .798996 .07624817 .80400088 .089263919 .82199099 .13427735 .83399966 .1652832 .875 .2713318 .875 .32736207 .875 .34336854 .875 .38539125 .83799746 .4143982 .82099917 .42739869 .7919922 .44140626 .7449951 .44140626 .6549988 .44140626 .59999087 .38238526 .56799319 .34036256 .55999758 .42539979 .4889984 .44140626 .43798829 .44140626 .35499574 .44140626 .29899598 .39038087 .2689972 .3503723 .2619934 .41940309 .20298767 .44140626 .1619873 .44140626 .11898804 .44140626 .09599304 .4104004 .08299255 .38739015 .06098938 .3503723 .04699707 .29335023 .04699707 .28834535 .04699707 .27534486 .06098938 .27534486 .06399536 .27534486 .07798767 .27534486 .07899475 .27833558 .085998538 .3053589 .100997928 .36437989 .11999512 .4133911 .15899658 .4133911 .18499756 .4133911 .19198609 .39138795 .19198609 .36437989 .19198609 .34536744 .18299866 .3083496 .17599488 .28134156 .16899109 .2543335 .15899658 .21331787 .1539917 .19129944L.12199402 .06324768C.117996219 .050247194 .11199951 .025222779 .11199951 .022232056 .11199951 .00022888184 .12998963-.009765625 .1459961-.009765625 .1639862-.009765625 .17999268 .0032196046 .18499756 .01222229 .18998719 .021224976 .19799805 .053237916 .20298767 .07424927 .20799256 .09326172 .21899414 .13928223 .22499085 .16429138 .23098755 .18629456 .23699951 .20831299 .24198914 .23132324 .25299073 .27233888 .25498963 .28033448 .28399659 .32136537 .31199647 .3613739 .35899354 .4133911 .43399049 .4133911 .49198915 .4133911 .49299623 .36238099 .49299623 .34336854 .49299623 .31835938 .48999024 .3053589 .47599793 .24932862L.43399049 .08125305Z"/>
<path id="font_3_2" d="M.48599244 .6046295C.49299623 .63360598 .49499513 .63661196 .5169983 .63861086 .5219879 .63960269 .5569916 .63960269 .57699587 .63960269 .6380005 .63960269 .6639862 .63960269 .68899539 .63160708 .73399356 .61761477 .73599246 .5886383 .73599246 .5526581 .73599246 .53666689 .73599246 .52368167 .72898867 .4717102L.72698977 .46072389C.72698977 .45072938 .73399356 .4457245 .74398806 .4457245 .7589874 .4457245 .7609863 .45472718 .7630005 .47071839L.7899933 .66160586C.7899933 .6756134 .7779999 .6756134 .7599945 .6756134H.14498902C.11999512 .6756134 .117996219 .6756134 .11099243 .65460208L.04798889 .4777069C.04699707 .4737091 .042999269 .46472169 .042999269 .4597168 .042999269 .455719 .04499817 .4457245 .05999756 .4457245 .07299805 .4457245 .07499695 .45072938 .08099365 .4697113 .13899231 .62960818 .17199707 .63960269 .32398988 .63960269H.3659973C.3959961 .63960269 .39698792 .63861086 .39698792 .62960818 .39698792 .62861636 .39698792 .62361147 .3929901 .6086273L.26098634 .082962039C.2519989 .04598999 .24899292 .035995485 .14399719 .035995485 .10798645 .035995485 .09899902 .035995485 .09899902 .01399231 .09899902 .010986328 .100997928 0 .115997318 0 .14399719 0 .17399597 .0029907227 .20199585 .0029907227 .22999573 .0029907227 .2599945 .0039978029 .28799439 .0039978029 .31599427 .0039978029 .34999085 .0039978029 .37799073 .0029907227 .40499879 .0019989014 .43499757 0 .46199037 0 .46998597 0 .4850006 0 .4850006 .021987915 .4850006 .035995485 .47499085 .035995485 .44400025 .035995485 .4249878 .035995485 .40499879 .036987306 .38598634 .037994386 .35198976 .040985109 .34999085 .04498291 .34999085 .05697632 .34999085 .0639801 .34999085 .065979007 .35398866 .07997131L.48599244 .6046295Z"/>
<path id="font_3_1" d="M1.0209961 .6016388C1.0299988 .63861086 1.0319977 .64660647 1.1059876 .64660647 1.1269989 .64660647 1.1399994 .64660647 1.1399994 .66760256 1.1399994 .6826172 1.1279907 .6826172 1.1100006 .6826172H.973999C.94499209 .6826172 .94400027 .6816101 .93099978 .6626129L.54499819 .09295654 .44599916 .65560916C.44099427 .6816101 .44099427 .6826172 .41099549 .6826172H.2679901C.24798584 .6826172 .23498535 .6826172 .23498535 .660614 .23498535 .64660647 .24699402 .64660647 .2689972 .64660647 .2849884 .64660647 .2889862 .64660647 .30699159 .64460757 .32699586 .64260867 .32899476 .64060977 .32899476 .63061526 .32899476 .6296234 .32899476 .6236267 .32499696 .6086426L.19898987 .10694885C.18998719 .07296753 .1749878 .038986207 .09498596 .035995485 .08699036 .035995485 .07398987 .034988405 .07398987 .01399231 .07398987 .0129852299 .07499695 0 .08898926 0 .11898804 0 .16099549 .0039978029 .19299317 .0039978029 .21699524 .0039978029 .2749939 0 .29899598 0 .3039856 0 .31900025 0 .31900025 .021987915 .31900025 .034988405 .30599977 .035995485 .29699708 .035995485 .23298645 .037994386 .23298645 .0639801 .23298645 .07797241 .23298645 .081970218 .23298645 .08695984 .23699951 .10295105L.36999513 .63461306H.37098695L.47799684 .026992798C.48098756 .008987427 .48298646 0 .49798585 0 .5119934 0 .519989 .010986328 .5269928 .021987915L.94699099 .64460757 .94799807 .6436157 .8069916 .07797241C.798996 .04399109 .7969971 .035995485 .71899417 .035995485 .70098879 .035995485 .68899539 .035995485 .68899539 .01399231 .68899539 .0129852299 .68899539 0 .7049866 0 .723999 0 .746994 .0029907227 .7669983 .0029907227 .7869873 .0029907227 .80999758 .0039978029 .8299866 .0039978029 .8580017 .0039978029 .92900088 0 .95700076 0 .96299746 0 .9779968 0 .9779968 .021987915 .9779968 .035995485 .96598818 .035995485 .94599917 .035995485 .94499209 .035995485 .9259949 .035995485 .9079895 .037994386 .8849945 .039993287 .8849945 .04298401 .8849945 .052978517 .8849945 .05897522 .8880005 .06896973 .8889923 .07496643L1.0209961 .6016388Z"/>
<path id="font_4_1" d="M.6369934 .41259767C.7969971 .48361207 .8509979 .5366211 .8509979 .6016388 .8509979 .66363528 .79499819 .7086334 .70999148 .7086334 .651001 .7086334 .4889984 .6826477 .33499146 .50361636 .35099793 .59962466 .3600006 .68963626 .3600006 .6926422 .3600006 .7036438 .34799195 .7046356 .34298707 .7046356 .32798768 .7046356 .31498719 .6976471 .29599 .6886444 .27198792 .67663577 .23098755 .6566467 .22299195 .65164187 .18099976 .6296387 .17399597 .6106262 .17399597 .6046295 .17399597 .59962466 .1769867 .5926361 .18998719 .5926361 .20498657 .5926361 .21699524 .5986328 .25498963 .61763 .24499512 .51560977 .22399903 .3875885 .19999695 .28157044 .17199707 .1515503 .15699768 .10154724 .101989749 .0065307619 .09599304-.004470825 .09498596-.0064697267 .09498596-.010467529 .09498596-.020462037 .10398865-.022460938 .11099243-.022460938 .13699341-.022460938 .17199707 .0015258789 .18199158 .0115356449 .18598938 .016525269 .24299622 .092544559 .27999879 .23556519 .33898927 .4586029 .48799134 .63964846 .6380005 .63964846 .69699099 .63964846 .75 .6096344 .75 .5556183 .75 .5186157 .75 .49861146 .49499513 .41360475 .46398927 .40260316 .45498658 .39959718 .43998719 .3895874 .41999818 .3755951 .4099884 .36158753 .4099884 .35258485 .4099884 .34458924 .4169922 .34059144 .42599488 .34059144 .42900086 .34059144 .43499757 .34158326 .43899537 .34259034 .44799806 .34358216 .47898866 .34757997 .5049896 .34757997 .6159973 .34757997 .72698977 .3025818 .72698977 .19656372 .72698977 .11953735 .6859894 .08854675 .647995 .073532108 .58799746 .04953003 .5079956 .046524049 .47999574 .046524049 .43299867 .046524049 .37098695 .054534913 .31199647 .09553528 .3019867 .10154724 .30099488 .10253906 .2939911 .10253906 .2630005 .10253906 .20899964 .0675354 .20899964 .044525148 .20899964 .029525757 .27398683 .0015258789 .2919922-.0054626467 .34298707-.022460938 .38398744-.022460938 .4079895-.022460938 .6409912-.022460938 .8279877 .08753967 .8279877 .24256897 .8279877 .35858155 .71499636 .40359498 .6369934 .41259767Z"/>
<path id="font_4_2" d="M.69099429 .15966797C.69099429 .16868592 .68099978 .17068482 .673996 .17068482 .6419983 .17068482 .6159973 .14866638 .59399417 .12564087 .5249939 .05758667 .45298768 .044570924 .4079895 .044570924 .27598573 .044570924 .18099976 .13865662 .18099976 .28077699 .18099976 .3688507 .24099732 .6360779 .5219879 .6360779 .56900027 .6360779 .6009979 .62506106 .6009979 .58102419 .6009979 .54599 .5589905 .48294068 .55599978 .47894288 .5439911 .46192933 .5439911 .45993043 .5439911 .45492555 .5439911 .4439087 .55599978 .4439087 .5609894 .4439087 .59098818 .4439087 .6259918 .470932 .6349945 .48194886 .6539917 .5039673 .6629944 .52197268 .67900088 .55300906 .69599917 .58802798 .70199587 .60705569 .70199587 .628067 .70199587 .7050781 .621994 .7050781 .59498599 .7050781 .46699525 .7050781 .33699037 .6560669 .23799134 .5680084 .12298584 .4649353 .07998657 .32681275 .07998657 .23373413 .07998657 .0776062 .18699646-.024414063 .33499146-.024414063 .40699769-.024414063 .4869995-.0024261475 .56999209 .048583986 .6100006 .07260132 .69099429 .13565064 .69099429 .15966797Z"/>
<path id="font_5_1" d="M.72698977 .68881228C.72299197 .70980837 .71899417 .7158203 .69699099 .7158203 .6729889 .7158203 .6669922 .70780947 .6569977 .69281008L.2649994 .124816898C.22299195 .063949588 .18798828 .04798889 .12298584 .04498291 .10398865 .04399109 .10398865 .017990113 .10398865 .016998291 .10398865 .0029907227 .115997318 0 .11999512 0 .13398743 0 .15098572 .0029907227 .16499329 .0029907227 .18199158 .0029907227 .19898987 .0039978029 .21598816 .0039978029 .23498535 .0039978029 .25299073 .0029907227 .2709961 .0029907227 .2889862 .0029907227 .30999757 0 .32798768 0 .33499146 0 .35198976 0 .35198976 .027999878 .35198976 .04399109 .33699037 .04498291 .33299256 .04498291 .32499696 .04498291 .28599549 .04698181 .28599549 .07093811 .28599549 .082901 .2979889 .099868778 .30499269 .10984802L.37799073 .21661377C.3829956 .22261048 .38398744 .2236023 .40299989 .2236023H.70599368C.70799258 .21162415 .70899966 .20663452 .71199038 .19467163 .71499636 .17671204 .7350006 .076919559 .7350006 .06694031 .7350006 .04498291 .6719971 .04498291 .6669922 .04498291 .6519928 .04498291 .6359863 .04498291 .6359863 .016998291 .6359863 .0069885256 .6429901 0 .6539917 0 .6749878 0 .69898989 .0029907227 .72099307 .0029907227 .7449951 .0029907227 .7679901 .0039978029 .7919922 .0039978029 .8129883 .0039978029 .83499148 .0029907227 .85598757 .0029907227 .8759918 .0029907227 .8989868 0 .9189911 0 .9359894 0 .94299319 .011993408 .94299319 .027999878 .94299319 .04498291 .9269867 .04498291 .9129944 .04498291 .8470001 .04498291 .84599307 .051971437 .84199526 .07392883L.72698977 .68881228M.6369934 .5927582 .69799807 .26860047H.4139862L.6369934 .5927582Z"/>
</defs>
<use data-text="V" xlink:href="#font_1_1" transform="matrix(9.962899,0,0,-9.9626,12.134888,11.35)"/>
<use data-text="W" xlink:href="#font_1_2" transform="matrix(9.962899,0,0,-9.9626,55.835206,11.35)"/>
<use data-text="F" xlink:href="#font_2_1" transform="matrix(9.962899,0,0,-9.9626,10.391838,43.445)"/>
<use data-text="n" xlink:href="#font_3_4" transform="matrix(6.9740097,0,0,-6.9738,16.480019,39.83)"/>
<use data-text="F" xlink:href="#font_2_1" transform="matrix(9.962899,0,0,-9.9626,54.403169,43.445)"/>
<use data-text="m" xlink:href="#font_3_3" transform="matrix(6.9740097,0,0,-6.9738,60.49135,39.83)"/>
<path transform="matrix(1.00003,0,0,-1,39.2267,23.993)" stroke-width=".39848" stroke-linecap="butt" stroke-miterlimit="10" stroke-linejoin="miter" fill="none" stroke="#000000" d="M-14.57135 15.13475H11.71677"/>
<path transform="matrix(1.00003,0,0,-1,51.14306,8.85825)" stroke-width=".39848" stroke-linecap="round" stroke-linejoin="round" fill="none" stroke="#000000" d="M-2.07213 2.39091C-1.69356 .95633-.84995 .27893 0 0-.84995-.27893-1.69356-.95633-2.07213-2.39091"/>
<use data-text="T" xlink:href="#font_3_2" transform="matrix(6.9740097,0,0,-6.9738,35.109575,6.511999)"/>
<path transform="matrix(1.00003,0,0,-1,39.2267,23.993)" stroke-width=".39848" stroke-linecap="butt" stroke-miterlimit="10" stroke-linejoin="miter" fill="none" stroke="#000000" d="M-23.07733 8.79494V-8.3411"/>
<path transform="matrix(0,1,1.00003,0,16.148678,32.53333)" stroke-width=".39848" stroke-linecap="round" stroke-linejoin="round" fill="none" stroke="#000000" d="M-2.07213 2.39091C-1.69356 .95633-.84995 .27893 0 0-.84995-.27893-1.69356-.95633-2.07213-2.39091"/>
<use data-text="M" xlink:href="#font_3_1" transform="matrix(6.9740097,0,0,-6.9738,1.0445557,25.847)"/>
<use data-text="B" xlink:href="#font_4_1" transform="matrix(4.9814498,0,0,-4.9813,8.641785,26.848999)"/>
<path transform="matrix(1.00003,0,0,-1,39.2267,23.993)" stroke-width=".39848" stroke-linecap="butt" stroke-miterlimit="10" stroke-linejoin="miter" fill="none" stroke="#000000" d="M22.00494 8.79494V-8.3411"/>
<path transform="matrix(0,1,1.00003,0,61.2323,32.53333)" stroke-width=".39848" stroke-linecap="round" stroke-linejoin="round" fill="none" stroke="#000000" d="M-2.07213 2.39091C-1.69356 .95633-.84995 .27893 0 0-.84995-.27893-1.69356-.95633-2.07213-2.39091"/>
<use data-text="M" xlink:href="#font_3_1" transform="matrix(6.9740097,0,0,-6.9738,63.57843,25.847)"/>
<use data-text="C" xlink:href="#font_4_2" transform="matrix(4.9814498,0,0,-4.9813,71.17566,26.848999)"/>
<path transform="matrix(1.00003,0,0,-1,39.2267,23.993)" stroke-width=".39848" stroke-linecap="butt" stroke-miterlimit="10" stroke-linejoin="miter" fill="none" stroke="#000000" d="M-12.82841-16.96123H10.28519"/>
<path transform="matrix(1.00003,0,0,-1,49.711435,40.95423)" stroke-width=".39848" stroke-linecap="round" stroke-linejoin="round" fill="none" stroke="#000000" d="M-2.07213 2.39091C-1.69356 .95633-.84995 .27893 0 0-.84995-.27893-1.69356-.95633-2.07213-2.39091"/>
<use data-text="T" xlink:href="#font_3_2" transform="matrix(6.9740097,0,0,-6.9738,32.97151,37.606)"/>
<use data-text="A" xlink:href="#font_5_1" transform="matrix(4.9814498,0,0,-4.9813,37.67666,38.607999)"/>
</svg>
