<svg xmlns="http://www.w3.org/2000/svg" xmlns:xlink="http://www.w3.org/1999/xlink" xmlns:inkscape="http://www.inkscape.org/namespaces/inkscape" version="1.1" width="151" height="151" viewBox="0 0 151 151">
<defs>
<path id="font_1_1" d="M.33499146 .63612368C.33499146 .6630554 .33299256 .6640625 .30499269 .6640625 .24099732 .6014404 .1499939 .6004486 .10899353 .6004486V.5644531C.1329956 .5644531 .19898987 .5644531 .2539978 .592453V.08203125C.2539978 .04899597 .2539978 .035995485 .1539917 .035995485H.115997318V0C.13398743 .0009918213 .25698854 .0039978029 .2939911 .0039978029 .32499696 .0039978029 .45098878 .0009918213 .47299195 0V.035995485H.43499757C.33499146 .035995485 .33499146 .04899597 .33499146 .08203125V.63612368Z"/>
<path id="font_1_2" d="M.5049896 .18203736H.47099305C.46798707 .16001892 .45799256 .100997928 .44499208 .09098816 .43699647 .084991458 .3600006 .084991458 .34599305 .084991458H.1619873C.2669983 .17803955 .3019867 .20603943 .3619995 .25306703 .43598939 .312088 .5049896 .374115 .5049896 .46914674 .5049896 .5900879 .39898683 .6640625 .2709961 .6640625 .14698792 .6640625 .06298828 .57710269 .06298828 .4851532 .06298828 .43414308 .10598755 .42915345 .115997318 .42915345 .13999939 .42915345 .16899109 .44615174 .16899109 .48214723 .16899109 .5001526 .1619873 .53515627 .10998535 .53515627 .14099121 .6060791 .20899964 .62805178 .2559967 .62805178 .35598756 .62805178 .4079895 .5501404 .4079895 .46914674 .4079895 .38212586 .34599305 .3130951 .31399537 .27708436L.07299805 .038986207C.06298828 .02999878 .06298828 .027999878 .06298828 0H.47499085L.5049896 .18203736Z"/>
<path id="font_1_3" d="M.272995 .33428956C.35099793 .33428956 .40699769 .2803192 .40699769 .1733551 .40699769 .04940796 .33499146 .012466431 .2769928 .012466431 .23699951 .012466431 .14898682 .0234375 .10699463 .082351688 .1539917 .084350589 .16499329 .11735535 .16499329 .13835144 .16499329 .17034912 .14099121 .19335938 .10998535 .19335938 .08198547 .19335938 .053985597 .17634583 .053985597 .13534546 .053985597 .041412355 .1579895-.01953125 .2789917-.01953125 .41799928-.01953125 .5139923 .07336426 .5139923 .1733551 .5139923 .2513275 .44999696 .32929994 .33999635 .35229493 .44499208 .39024354 .48298646 .4650879 .48298646 .5260773 .48298646 .60505679 .3919983 .6640625 .2809906 .6640625 .16999817 .6640625 .084991458 .61006167 .084991458 .5300751 .084991458 .49606324 .10699463 .47706605 .13699341 .47706605 .16799927 .47706605 .18798828 .5000763 .18798828 .5280762 .18798828 .5570679 .16799927 .57806399 .13699341 .5800781 .17199707 .62405398 .24099732 .63505557 .27799989 .63505557 .32299806 .63505557 .38598634 .6130676 .38598634 .5260773 .38598634 .48406983 .37199403 .43814088 .34599305 .4072113 .31298829 .36927796 .2849884 .3672943 .23498535 .36428834 .20999146 .3623047 .20799256 .3623047 .20298767 .3612976 .20098877 .3612976 .19299317 .3592987 .19299317 .34829713 .19299317 .33428956 .20199585 .33428956 .21899414 .33428956H.272995Z"/>
<path id="font_1_4" d="M.5289917 .1640625V.20005799H.41799928V.64582827C.41799928 .66682437 .41799928 .6738281 .3959961 .6738281 .38398744 .6738281 .37998963 .6738281 .36999513 .65982058L.038986207 .20005799V.1640625H.33299256V.08201599C.33299256 .04800415 .33299256 .035995485 .2519989 .035995485H.22499085V0C.2749939 .0019989014 .33898927 .0039978029 .375 .0039978029 .4119873 .0039978029 .47599793 .0019989014 .526001 0V.035995485H.49899293C.41799928 .035995485 .41799928 .04800415 .41799928 .08201599V.1640625H.5289917M.33999635 .5658722V.20005799H.07598877L.33999635 .5658722Z"/>
<path id="font_1_5" d="M.15499878 .5588074C.20599365 .5458069 .23599243 .5458069 .2519989 .5458069 .38398744 .5458069 .46199037 .6358032 .46199037 .6508026 .46199037 .6618042 .45498658 .6648102 .44999696 .6648102 .44799806 .6648102 .44599916 .6648102 .44198609 .6618042 .41799928 .6528015 .36499024 .6328125 .29100038 .6328125 .2630005 .6328125 .20999146 .6348114 .14498902 .6598053 .1349945 .6648102 .1329956 .6648102 .13198853 .6648102 .11898804 .6648102 .11898804 .6538086 .11898804 .6378021V.34251405C.11898804 .32548524 .11898804 .3134613 .1349945 .3134613 .14399719 .3134613 .14498902 .3154602 .15499878 .32748414 .19799805 .38259889 .25898744 .390625 .2939911 .390625 .35398866 .390625 .3809967 .34251405 .38598634 .33450318 .4039917 .30143739 .4099884 .26335145 .4099884 .20524597 .4099884 .17524719 .4099884 .116256717 .37998963 .07234192 .35499574 .03640747 .31199647 .012466431 .2630005 .012466431 .19799805 .012466431 .1309967 .04838562 .10598755 .11425781 .14399719 .11125183 .16299439 .13624573 .16299439 .16325379 .16299439 .20625305 .12599182 .21424866 .11299133 .21424866 .11099243 .21424866 .06298828 .21424866 .06298828 .1602478 .06298828 .07034302 .14498902-.01953125 .2649994-.01953125 .3929901-.01953125 .5049896 .07533264 .5049896 .20124817 .5049896 .31445313 .4189911 .41862489 .29499818 .41862489 .25099183 .41862489 .19898987 .4076233 .15499878 .36956788V.5588074Z"/>
<clipPath id="clip_2">
<path transform="matrix(1.00002,0,0,-1,1.3946686,149.916)" d="M0 0H148.81977V148.81977H0Z"/>
</clipPath>
</defs>
<path transform="matrix(1.00002,0,0,-1,1.3946686,149.916)" stroke-width=".19925" stroke-linecap="butt" stroke-miterlimit="10" stroke-linejoin="miter" fill="none" stroke="#7f807f" d="M42.51993 17.27486V21.25996M63.77989 17.27486V21.25996M85.03986 17.27486V21.25996M106.29982 17.27486V21.25996M127.5598 17.27486V21.25996"/>
<path transform="matrix(1.00002,0,0,-1,1.3946686,149.916)" stroke-width=".19925" stroke-linecap="butt" stroke-miterlimit="10" stroke-linejoin="miter" fill="none" stroke="#7f807f" d="M17.27486 42.51993H21.25996M17.27486 63.77989H21.25996M17.27486 85.03986H21.25996M17.27486 106.29982H21.25996M17.27486 127.5598H21.25996"/>
<path transform="matrix(1.00002,0,0,-1,1.3946686,149.916)" stroke-width=".99628" stroke-linecap="butt" stroke-miterlimit="10" stroke-linejoin="miter" fill="none" stroke="#bfbfbf" d="M4.63359 21.25996H144.18618"/>
<path transform="matrix(-1.00002,-0,0,1,8.866899,128.65604)" d="M6.05339 0 1.60873 1.68304 3.08754 0 1.60873-1.68304Z" fill="#bfbfbf"/>
<path transform="matrix(-1.00002,-0,0,1,8.866899,128.65604)" stroke-width=".99628" stroke-linecap="butt" stroke-miterlimit="10" stroke-linejoin="miter" fill="none" stroke="#bfbfbf" d="M6.05339 0 1.60873 1.68304 3.08754 0 1.60873-1.68304Z"/>
<path transform="matrix(1.00002,0,0,-1,142.7452,128.65604)" d="M6.05339 0 1.60873 1.68304 3.08754 0 1.60873-1.68304Z" fill="#bfbfbf"/>
<path transform="matrix(1.00002,0,0,-1,142.7452,128.65604)" stroke-width=".99628" stroke-linecap="butt" stroke-miterlimit="10" stroke-linejoin="miter" fill="none" stroke="#bfbfbf" d="M6.05339 0 1.60873 1.68304 3.08754 0 1.60873-1.68304Z"/>
<path transform="matrix(1.00002,0,0,-1,1.3946686,149.916)" stroke-width=".99628" stroke-linecap="butt" stroke-miterlimit="10" stroke-linejoin="miter" fill="none" stroke="#bfbfbf" d="M21.25996 4.63359V144.18618"/>
<path transform="matrix(0,1,1.00002,0,22.655055,142.44393)" d="M6.05339 0 1.60873 1.68304 3.08754 0 1.60873-1.68304Z" fill="#bfbfbf"/>
<path transform="matrix(0,1,1.00002,0,22.655055,142.44393)" stroke-width=".99628" stroke-linecap="butt" stroke-miterlimit="10" stroke-linejoin="miter" fill="none" stroke="#bfbfbf" d="M6.05339 0 1.60873 1.68304 3.08754 0 1.60873-1.68304Z"/>
<path transform="matrix(0,-1,-1.00002,-0,22.655055,8.568314)" d="M6.05339 0 1.60873 1.68304 3.08754 0 1.60873-1.68304Z" fill="#bfbfbf"/>
<path transform="matrix(0,-1,-1.00002,-0,22.655055,8.568314)" stroke-width=".99628" stroke-linecap="butt" stroke-miterlimit="10" stroke-linejoin="miter" fill="none" stroke="#bfbfbf" d="M6.05339 0 1.60873 1.68304 3.08754 0 1.60873-1.68304Z"/>
<use data-text="1" xlink:href="#font_1_1" transform="matrix(6.97394,0,0,-6.9738,41.92948,140.655)"/>
<use data-text="2" xlink:href="#font_1_2" transform="matrix(6.97394,0,0,-6.9738,63.189905,140.655)"/>
<use data-text="3" xlink:href="#font_1_3" transform="matrix(6.97394,0,0,-6.9738,84.45033,140.655)"/>
<use data-text="4" xlink:href="#font_1_4" transform="matrix(6.97394,0,0,-6.9738,105.71076,140.655)"/>
<use data-text="5" xlink:href="#font_1_5" transform="matrix(6.97394,0,0,-6.9738,126.97118,140.655)"/>
<use data-text="1" xlink:href="#font_1_1" transform="matrix(6.97394,0,0,-6.9738,11.178864,109.643009)"/>
<use data-text="2" xlink:href="#font_1_2" transform="matrix(6.97394,0,0,-6.9738,11.178864,88.382999)"/>
<use data-text="3" xlink:href="#font_1_3" transform="matrix(6.97394,0,0,-6.9738,11.178864,67.123)"/>
<use data-text="4" xlink:href="#font_1_4" transform="matrix(6.97394,0,0,-6.9738,11.178864,45.863)"/>
<use data-text="5" xlink:href="#font_1_5" transform="matrix(6.97394,0,0,-6.9738,11.178864,24.602997)"/>
<g clip-path="url(#clip_2)">
<path transform="matrix(1.00002,0,0,-1,1.3946686,149.916)" d="M65.89333 42.51993C65.89333 43.68715 64.94711 44.63336 63.77989 44.63336 62.61267 44.63336 61.66646 43.68715 61.66646 42.51993 61.66646 41.3527 62.61267 40.40648 63.77989 40.40648 64.94711 40.40648 65.89333 41.3527 65.89333 42.51993ZM63.77989 42.51993"/>
<path transform="matrix(1.00002,0,0,-1,1.3946686,149.916)" d="M44.63336 21.25996C44.63336 22.42719 43.68715 23.3734 42.51993 23.3734 41.3527 23.3734 40.40648 22.42719 40.40648 21.25996 40.40648 20.09274 41.3527 19.14651 42.51993 19.14651 43.68715 19.14651 44.63336 20.09274 44.63336 21.25996ZM42.51993 21.25996"/>
<path transform="matrix(1.00002,0,0,-1,1.3946686,149.916)" d="M87.1533 63.77989C87.1533 64.94711 86.20708 65.89333 85.03986 65.89333 83.87263 65.89333 82.92642 64.94711 82.92642 63.77989 82.92642 62.61267 83.87263 61.66646 85.03986 61.66646 86.20708 61.66646 87.1533 62.61267 87.1533 63.77989ZM85.03986 63.77989"/>
<path transform="matrix(1.00002,0,0,-1,1.3946686,149.916)" d="M108.41327 106.29982C108.41327 107.46706 107.46706 108.41327 106.29982 108.41327 105.1326 108.41327 104.18639 107.46706 104.18639 106.29982 104.18639 105.1326 105.1326 104.18639 106.29982 104.18639 107.46706 104.18639 108.41327 105.1326 108.41327 106.29982ZM106.29982 106.29982"/>
<path transform="matrix(1.00002,0,0,-1,1.3946686,149.916)" d="M108.41327 127.5598C108.41327 128.72702 107.46706 129.67324 106.29982 129.67324 105.1326 129.67324 104.18639 128.72702 104.18639 127.5598 104.18639 126.39256 105.1326 125.44635 106.29982 125.44635 107.46706 125.44635 108.41327 126.39256 108.41327 127.5598ZM106.29982 127.5598"/>
<path transform="matrix(1.00002,0,0,-1,1.3946686,149.916)" stroke-width=".99628" stroke-linecap="butt" stroke-miterlimit="10" stroke-linejoin="miter" fill="none" stroke="#ff0000" d="M42.51993 13.75647 46.06323 19.1756 49.60654 24.59474 53.14986 30.01393 56.69318 35.43306 60.23648 40.85219 63.7798 46.27133 67.3231 51.69046 70.86641 57.10965 74.40974 62.52878 77.95305 67.9479 81.49635 73.36705 85.03967 78.7862 88.58298 84.20538 92.1263 89.6245 95.66962 95.04364 99.21292 100.46278 102.75623 105.88191 106.29955 111.3011 109.84286 116.72023 113.38617 122.13936 116.92949 127.5585 120.4728 132.97765 124.0161 138.3968 127.55943 143.81595"/>
</g>
</svg>
