<svg xmlns="http://www.w3.org/2000/svg" xmlns:xlink="http://www.w3.org/1999/xlink" xmlns:inkscape="http://www.inkscape.org/namespaces/inkscape" version="1.1" width="173" height="130" viewBox="0 0 173 130">
<defs>
<path id="font_1_1" d="M.74398806 .2263794C.7599945 .2263794 .7839966 .2263794 .7839966 .25038148 .7839966 .27539063 .7609863 .27539063 .74398806 .27539063H.147995C.13198853 .27539063 .10798645 .27539063 .10798645 .25138856 .10798645 .2263794 .1309967 .2263794 .147995 .2263794H.74398806Z"/>
<path id="font_2_3" d="M.272995 .33428956C.35099793 .33428956 .40699769 .2803192 .40699769 .1733551 .40699769 .04940796 .33499146 .012466431 .2769928 .012466431 .23699951 .012466431 .14898682 .0234375 .10699463 .082351688 .1539917 .084350589 .16499329 .11735535 .16499329 .13835144 .16499329 .17034912 .14099121 .19335938 .10998535 .19335938 .08198547 .19335938 .053985597 .17634583 .053985597 .13534546 .053985597 .041412355 .1579895-.01953125 .2789917-.01953125 .41799928-.01953125 .5139923 .07336426 .5139923 .1733551 .5139923 .2513275 .44999696 .32929994 .33999635 .35229493 .44499208 .39024354 .48298646 .4650879 .48298646 .5260773 .48298646 .60505679 .3919983 .6640625 .2809906 .6640625 .16999817 .6640625 .084991458 .61006167 .084991458 .5300751 .084991458 .49606324 .10699463 .47706605 .13699341 .47706605 .16799927 .47706605 .18798828 .5000763 .18798828 .5280762 .18798828 .5570679 .16799927 .57806399 .13699341 .5800781 .17199707 .62405398 .24099732 .63505557 .27799989 .63505557 .32299806 .63505557 .38598634 .6130676 .38598634 .5260773 .38598634 .48406983 .37199403 .43814088 .34599305 .4072113 .31298829 .36927796 .2849884 .3672943 .23498535 .36428834 .20999146 .3623047 .20799256 .3623047 .20298767 .3612976 .20098877 .3612976 .19299317 .3592987 .19299317 .34829713 .19299317 .33428956 .20199585 .33428956 .21899414 .33428956H.272995Z"/>
<path id="font_2_2" d="M.5049896 .18203736H.47099305C.46798707 .16001892 .45799256 .100997928 .44499208 .09098816 .43699647 .084991458 .3600006 .084991458 .34599305 .084991458H.1619873C.2669983 .17803955 .3019867 .20603943 .3619995 .25306703 .43598939 .312088 .5049896 .374115 .5049896 .46914674 .5049896 .5900879 .39898683 .6640625 .2709961 .6640625 .14698792 .6640625 .06298828 .57710269 .06298828 .4851532 .06298828 .43414308 .10598755 .42915345 .115997318 .42915345 .13999939 .42915345 .16899109 .44615174 .16899109 .48214723 .16899109 .5001526 .1619873 .53515627 .10998535 .53515627 .14099121 .6060791 .20899964 .62805178 .2559967 .62805178 .35598756 .62805178 .4079895 .5501404 .4079895 .46914674 .4079895 .38212586 .34599305 .3130951 .31399537 .27708436L.07299805 .038986207C.06298828 .02999878 .06298828 .027999878 .06298828 0H.47499085L.5049896 .18203736Z"/>
<path id="font_2_1" d="M.33499146 .63612368C.33499146 .6630554 .33299256 .6640625 .30499269 .6640625 .24099732 .6014404 .1499939 .6004486 .10899353 .6004486V.5644531C.1329956 .5644531 .19898987 .5644531 .2539978 .592453V.08203125C.2539978 .04899597 .2539978 .035995485 .1539917 .035995485H.115997318V0C.13398743 .0009918213 .25698854 .0039978029 .2939911 .0039978029 .32499696 .0039978029 .45098878 .0009918213 .47299195 0V.035995485H.43499757C.33499146 .035995485 .33499146 .04899597 .33499146 .08203125V.63612368Z"/>
<clipPath id="clip_3">
<path transform="matrix(1.00008,0,0,-1.00003,1.3956757,128.66042)" d="M0 0H170.07973V127.5598H0Z"/>
</clipPath>
<path id="font_4_2" d="M.57299807 .37132264C.5799866 .38432313 .58099368 .3853302 .60198977 .3873291 .6139984 .38832093 .6389923 .38832093 .6459961 .38832093V.44433595C.61499026 .44232179 .59399417 .44032289 .56199648 .44032289 .5319977 .44032289 .49299623 .44132997 .46299745 .44433595V.38832093C.4889984 .38832093 .49499513 .38632203 .5069885 .38232423L.37298585 .1191864 .23599243 .38832093H.2829895V.44433595C.23999024 .44232179 .19599915 .44032289 .15299988 .44032289 .11399841 .44032289 .07499695 .44132997 .035995485 .44433595V.38832093H.100997928L.28799439 .022140503C.30099488-.0038604737 .31098939-.005859375 .34098817-.005859375 .37098695-.005859375 .37998963-.0038604737 .3939972 .022140503L.57299807 .37132264Z"/>
<path id="font_4_1" d="M.41799928 .44218446V.3861847C.47698976 .3861847 .4850006 .3861847 .4850006 .34718324V.16215515C.4850006 .07913208 .42099 .040130617 .34498597 .040130617 .25898744 .040130617 .2579956 .06213379 .2579956 .11013794V.4501953L.06399536 .44218446V.3861847C.12298584 .3861847 .1309967 .3861847 .1309967 .34718324V.12113953C.1309967 .005126953 .24198914-.005859375 .32798768-.005859375 .36099244-.005859375 .43499757-.005859375 .49198915 .06513977V-.005859375L.67900088 .0001373291V.056137086C.6199951 .056137086 .6119995 .056137086 .6119995 .09513855V.4501953L.41799928 .44218446Z"/>
</defs>
<path transform="matrix(1.00008,0,0,-1.00003,1.3956757,128.66042)" stroke-width=".19925" stroke-linecap="butt" stroke-miterlimit="10" stroke-linejoin="miter" fill="none" stroke="#7f807f" d="M21.25996 59.79478V63.77989M42.51993 59.79478V63.77989M63.77989 59.79478V63.77989M106.29982 59.79478V63.77989M127.5598 59.79478V63.77989M148.81977 59.79478V63.77989"/>
<path transform="matrix(1.00008,0,0,-1.00003,1.3956757,128.66042)" stroke-width=".19925" stroke-linecap="butt" stroke-miterlimit="10" stroke-linejoin="miter" fill="none" stroke="#7f807f" d="M81.05475 21.25996H85.03986M81.05475 42.51993H85.03986M81.05475 85.03986H85.03986M81.05475 106.29982H85.03986"/>
<path transform="matrix(1.00008,0,0,-1.00003,1.3956757,128.66042)" stroke-width=".99628" stroke-linecap="butt" stroke-miterlimit="10" stroke-linejoin="miter" fill="none" stroke="#bfbfbf" d="M4.63359 63.77989H165.44614"/>
<path transform="matrix(-1.00008,-0,0,1.00003,8.868353,64.87862)" d="M6.05339 0 1.60873 1.68304 3.08754 0 1.60873-1.68304Z" fill="#bfbfbf"/>
<path transform="matrix(-1.00008,-0,0,1.00003,8.868353,64.87862)" stroke-width=".99628" stroke-linecap="butt" stroke-miterlimit="10" stroke-linejoin="miter" fill="none" stroke="#bfbfbf" d="M6.05339 0 1.60873 1.68304 3.08754 0 1.60873-1.68304Z"/>
<path transform="matrix(1.00008,0,0,-1.00003,164.01633,64.87862)" d="M6.05339 0 1.60873 1.68304 3.08754 0 1.60873-1.68304Z" fill="#bfbfbf"/>
<path transform="matrix(1.00008,0,0,-1.00003,164.01633,64.87862)" stroke-width=".99628" stroke-linecap="butt" stroke-miterlimit="10" stroke-linejoin="miter" fill="none" stroke="#bfbfbf" d="M6.05339 0 1.60873 1.68304 3.08754 0 1.60873-1.68304Z"/>
<path transform="matrix(1.00008,0,0,-1.00003,1.3956757,128.66042)" stroke-width=".99628" stroke-linecap="butt" stroke-miterlimit="10" stroke-linejoin="miter" fill="none" stroke="#bfbfbf" d="M85.03986 4.63359V122.9262"/>
<path transform="matrix(0,1.00003,1.00008,0,86.442348,121.18811)" d="M6.05339 0 1.60873 1.68304 3.08754 0 1.60873-1.68304Z" fill="#bfbfbf"/>
<path transform="matrix(0,1.00003,1.00008,0,86.442348,121.18811)" stroke-width=".99628" stroke-linecap="butt" stroke-miterlimit="10" stroke-linejoin="miter" fill="none" stroke="#bfbfbf" d="M6.05339 0 1.60873 1.68304 3.08754 0 1.60873-1.68304Z"/>
<path transform="matrix(0,-1.00003,-1.00008,-0,86.442348,8.569084)" d="M6.05339 0 1.60873 1.68304 3.08754 0 1.60873-1.68304Z" fill="#bfbfbf"/>
<path transform="matrix(0,-1.00003,-1.00008,-0,86.442348,8.569084)" stroke-width=".99628" stroke-linecap="butt" stroke-miterlimit="10" stroke-linejoin="miter" fill="none" stroke="#bfbfbf" d="M6.05339 0 1.60873 1.68304 3.08754 0 1.60873-1.68304Z"/>
<use data-text="&#x2212;" xlink:href="#font_1_1" transform="matrix(6.974358,0,0,-6.9740097,17.557969,76.87786)"/>
<use data-text="3" xlink:href="#font_2_3" transform="matrix(6.974358,0,0,-6.9740097,23.785462,76.87786)"/>
<use data-text="&#x2212;" xlink:href="#font_1_1" transform="matrix(6.974358,0,0,-6.9740097,38.81967,76.87786)"/>
<use data-text="2" xlink:href="#font_2_2" transform="matrix(6.974358,0,0,-6.9740097,45.047166,76.87786)"/>
<use data-text="&#x2212;" xlink:href="#font_1_1" transform="matrix(6.974358,0,0,-6.9740097,60.081369,76.87786)"/>
<use data-text="1" xlink:href="#font_2_1" transform="matrix(6.974358,0,0,-6.9740097,66.30886,76.87786)"/>
<use data-text="1" xlink:href="#font_2_1" transform="matrix(6.974358,0,0,-6.9740097,105.718029,76.87786)"/>
<use data-text="2" xlink:href="#font_2_2" transform="matrix(6.974358,0,0,-6.9740097,126.97972,76.87786)"/>
<use data-text="3" xlink:href="#font_2_3" transform="matrix(6.974358,0,0,-6.9740097,148.24143,76.87786)"/>
<use data-text="&#x2212;" xlink:href="#font_1_1" transform="matrix(6.974358,0,0,-6.9740097,68.73806,109.231838)"/>
<use data-text="2" xlink:href="#font_2_2" transform="matrix(6.974358,0,0,-6.9740097,74.96555,109.231838)"/>
<use data-text="&#x2212;" xlink:href="#font_1_1" transform="matrix(6.974358,0,0,-6.9740097,68.73806,87.97119)"/>
<use data-text="1" xlink:href="#font_2_1" transform="matrix(6.974358,0,0,-6.9740097,74.96555,87.97119)"/>
<use data-text="1" xlink:href="#font_2_1" transform="matrix(6.974358,0,0,-6.9740097,74.96556,45.86493)"/>
<use data-text="2" xlink:href="#font_2_2" transform="matrix(6.974358,0,0,-6.9740097,74.96556,24.604287)"/>
<g clip-path="url(#clip_3)">
<use data-text="v" xlink:href="#font_4_2" transform="matrix(6.974358,0,0,-6.9740097,20.21418,40.097757)"/>
<use data-text="u" xlink:href="#font_4_1" transform="matrix(6.974358,0,0,-6.9740097,111.22446,108.94983)"/>
<path transform="matrix(1.00008,0,0,-1.00003,1.3956757,128.66042)" stroke-width=".99628" stroke-linecap="butt" stroke-miterlimit="10" stroke-linejoin="miter" fill="none" stroke="#0000ff" d="M85.03986 63.77989 104.22781 25.40407"/>
<path transform="matrix(.44720576,.8943869,.89443156,-.44718344,104.36242,100.71687)" d="M6.05339 0 1.60873 1.68304 3.08754 0 1.60873-1.68304Z" fill="#0000ff"/>
<path transform="matrix(.44720576,.8943869,.89443156,-.44718344,104.36242,100.71687)" stroke-width=".99628" stroke-linecap="butt" stroke-miterlimit="10" stroke-linejoin="miter" fill="none" stroke="#0000ff" d="M6.05339 0 1.60873 1.68304 3.08754 0 1.60873-1.68304Z"/>
<path transform="matrix(1.00008,0,0,-1.00003,1.3956757,128.66042)" stroke-width=".99628" stroke-linecap="butt" stroke-miterlimit="10" stroke-linejoin="miter" fill="none" stroke="#ff0000" d="M85.03986 63.77989 25.65556 83.57469"/>
<path transform="matrix(-.94871589,-.3162195,-.3162353,.9486685,29.746214,45.98079)" d="M6.05339 0 1.60873 1.68304 3.08754 0 1.60873-1.68304Z" fill="#ff0000"/>
<path transform="matrix(-.94871589,-.3162195,-.3162353,.9486685,29.746214,45.98079)" stroke-width=".99628" stroke-linecap="butt" stroke-miterlimit="10" stroke-linejoin="miter" fill="none" stroke="#ff0000" d="M6.05339 0 1.60873 1.68304 3.08754 0 1.60873-1.68304Z"/>
</g>
</svg>
